<svg width="1920" height="1080" viewBox="0 0 1920 1080" fill="none" xmlns="http://www.w3.org/2000/svg">
<g clip-path="url(#clip0_275_2)">
<rect width="1920" height="1080" fill="#050505"/>
<g opacity="0.3">
<g clip-path="url(#clip1_275_2)">
<rect x="38.4361" y="1008.01" width="712" height="100" rx="11" transform="rotate(-8.3368 38.4361 1008.01)" stroke="#FAFAFA" stroke-width="8"/>
<rect x="-10.7934" y="768.622" width="100" height="100" rx="11" transform="rotate(-8.3368 -10.7934 768.622)" stroke="#FAFAFA" stroke-width="8"/>
<rect x="106.949" y="751.368" width="100" height="100" rx="11" transform="rotate(-8.3368 106.949 751.368)" stroke="#FAFAFA" stroke-width="8"/>
<rect x="224.691" y="734.114" width="100" height="100" rx="11" transform="rotate(-8.3368 224.691 734.114)" stroke="#FAFAFA" stroke-width="8"/>
<rect x="342.434" y="716.86" width="100" height="100" rx="11" transform="rotate(-8.3368 342.434 716.86)" stroke="#FAFAFA" stroke-width="8"/>
<rect x="460.176" y="699.606" width="100" height="100" rx="11" transform="rotate(-8.3368 460.176 699.606)" stroke="#FAFAFA" stroke-width="8"/>
<rect x="577.919" y="682.352" width="100" height="100" rx="11" transform="rotate(-8.3368 577.919 682.352)" stroke="#FAFAFA" stroke-width="8"/>
<rect x="695.662" y="665.098" width="100" height="100" rx="11" transform="rotate(-8.3368 695.662 665.098)" stroke="#FAFAFA" stroke-width="8"/>
<rect x="813.404" y="647.844" width="100" height="100" rx="11" transform="rotate(-8.3368 813.404 647.844)" stroke="#FAFAFA" stroke-width="8"/>
<rect x="931.146" y="630.59" width="100" height="100" rx="11" transform="rotate(-8.3368 931.146 630.59)" stroke="#FAFAFA" stroke-width="8"/>
<rect x="-46.5346" y="897.163" width="100" height="100" rx="11" transform="rotate(-8.3368 -46.5346 897.163)" stroke="#FAFAFA" stroke-width="8"/>
<rect x="71.2086" y="879.909" width="100" height="100" rx="11" transform="rotate(-8.3368 71.2086 879.909)" stroke="#FAFAFA" stroke-width="8"/>
<rect x="188.951" y="862.655" width="100" height="100" rx="11" transform="rotate(-8.3368 188.951 862.655)" stroke="#FAFAFA" stroke-width="8"/>
<rect x="306.693" y="845.4" width="100" height="100" rx="11" transform="rotate(-8.3368 306.693 845.4)" stroke="#FAFAFA" stroke-width="8"/>
<rect x="424.436" y="828.147" width="100" height="100" rx="11" transform="rotate(-8.3368 424.436 828.147)" stroke="#FAFAFA" stroke-width="8"/>
<rect x="542.178" y="810.892" width="100" height="100" rx="11" transform="rotate(-8.3368 542.178 810.892)" stroke="#FAFAFA" stroke-width="8"/>
<rect x="659.921" y="793.639" width="100" height="100" rx="11" transform="rotate(-8.3368 659.921 793.639)" stroke="#FAFAFA" stroke-width="8"/>
<rect x="777.664" y="776.385" width="100" height="100" rx="11" transform="rotate(-8.3368 777.664 776.385)" stroke="#FAFAFA" stroke-width="8"/>
<rect x="895.406" y="759.13" width="100" height="100" rx="11" transform="rotate(-8.3368 895.406 759.13)" stroke="#FAFAFA" stroke-width="8"/>
<rect x="-115.216" y="1028.51" width="133" height="100" rx="11" transform="rotate(-8.3368 -115.216 1028.51)" stroke="#FAFAFA" stroke-width="8"/>
<rect x="767.648" y="901.155" width="133" height="100" rx="11" transform="rotate(-8.3368 767.648 901.155)" stroke="#FAFAFA" stroke-width="8"/>
<rect x="918.042" y="879.116" width="133" height="100" rx="11" transform="rotate(-8.3368 918.042 879.116)" stroke="#FAFAFA" stroke-width="8"/>
<rect x="1068.44" y="857.078" width="133" height="100" rx="11" transform="rotate(-8.3368 1068.44 857.078)" stroke="#FAFAFA" stroke-width="8"/>
<rect x="1218.83" y="835.039" width="133" height="100" rx="11" transform="rotate(-8.3368 1218.83 835.039)" stroke="#FAFAFA" stroke-width="8"/>
<rect x="-15.4994" y="522.706" width="100" height="100" rx="11" transform="rotate(-8.3368 -15.4994 522.706)" stroke="#FAFAFA" stroke-width="8"/>
<rect x="102.243" y="505.452" width="100" height="100" rx="11" transform="rotate(-8.3368 102.243 505.452)" stroke="#FAFAFA" stroke-width="8"/>
<rect x="219.986" y="488.198" width="100" height="100" rx="11" transform="rotate(-8.3368 219.986 488.198)" stroke="#FAFAFA" stroke-width="8"/>
<rect x="337.728" y="470.944" width="100" height="100" rx="11" transform="rotate(-8.3368 337.728 470.944)" stroke="#FAFAFA" stroke-width="8"/>
<rect x="455.47" y="453.69" width="100" height="100" rx="11" transform="rotate(-8.3368 455.47 453.69)" stroke="#FAFAFA" stroke-width="8"/>
<rect x="573.213" y="436.436" width="100" height="100" rx="11" transform="rotate(-8.3368 573.213 436.436)" stroke="#FAFAFA" stroke-width="8"/>
<rect x="690.956" y="419.182" width="100" height="100" rx="11" transform="rotate(-8.3368 690.956 419.182)" stroke="#FAFAFA" stroke-width="8"/>
<rect x="808.698" y="401.928" width="100" height="100" rx="11" transform="rotate(-8.3368 808.698 401.928)" stroke="#FAFAFA" stroke-width="8"/>
<rect x="926.441" y="384.674" width="100" height="100" rx="11" transform="rotate(-8.3368 926.441 384.674)" stroke="#FAFAFA" stroke-width="8"/>
<rect x="-39.3666" y="649.506" width="100" height="100" rx="11" transform="rotate(-8.3368 -39.3666 649.506)" stroke="#FAFAFA" stroke-width="8"/>
<rect x="78.3756" y="632.253" width="100" height="100" rx="11" transform="rotate(-8.3368 78.3756 632.253)" stroke="#FAFAFA" stroke-width="8"/>
<rect x="196.118" y="614.998" width="100" height="100" rx="11" transform="rotate(-8.3368 196.118 614.998)" stroke="#FAFAFA" stroke-width="8"/>
<rect x="313.861" y="597.744" width="100" height="100" rx="11" transform="rotate(-8.3368 313.861 597.744)" stroke="#FAFAFA" stroke-width="8"/>
<rect x="431.603" y="580.49" width="100" height="100" rx="11" transform="rotate(-8.3368 431.603 580.49)" stroke="#FAFAFA" stroke-width="8"/>
<rect x="549.345" y="563.236" width="100" height="100" rx="11" transform="rotate(-8.3368 549.345 563.236)" stroke="#FAFAFA" stroke-width="8"/>
<rect x="667.088" y="545.983" width="100" height="100" rx="11" transform="rotate(-8.3368 667.088 545.983)" stroke="#FAFAFA" stroke-width="8"/>
<rect x="784.831" y="528.728" width="100" height="100" rx="11" transform="rotate(-8.3368 784.831 528.728)" stroke="#FAFAFA" stroke-width="8"/>
<rect x="902.573" y="511.474" width="100" height="100" rx="11" transform="rotate(-8.3368 902.573 511.474)" stroke="#FAFAFA" stroke-width="8"/>
<rect x="1020.32" y="494.22" width="100" height="100" rx="11" transform="rotate(-8.3368 1020.32 494.22)" stroke="#FAFAFA" stroke-width="8"/>
<rect x="1044.18" y="367.42" width="238" height="100" rx="11" transform="rotate(-8.3368 1044.18 367.42)" stroke="#FAFAFA" stroke-width="8"/>
<rect x="1138.06" y="476.966" width="160" height="100" rx="11" transform="rotate(-8.3368 1138.06 476.966)" stroke="#FAFAFA" stroke-width="8"/>
<rect x="1048.89" y="613.336" width="269" height="100" rx="11" transform="rotate(-8.3368 1048.89 613.336)" stroke="#FAFAFA" stroke-width="8"/>
<rect x="1013.15" y="741.877" width="323" height="100" rx="11" transform="rotate(-8.3368 1013.15 741.877)" stroke="#FAFAFA" stroke-width="8"/>
<rect x="-39.0316" y="389.712" width="100" height="100" rx="11" transform="rotate(-8.3368 -39.0316 389.712)" stroke="#FAFAFA" stroke-width="8"/>
<rect x="80.69" y="372.168" width="100" height="100" rx="11" transform="rotate(-8.3368 80.69 372.168)" stroke="#FAFAFA" stroke-width="8"/>
<rect x="261.756" y="345.635" width="100" height="100" rx="11" transform="rotate(-8.3368 261.756 345.635)" stroke="#FAFAFA" stroke-width="8"/>
<rect x="381.478" y="328.091" width="100" height="100" rx="11" transform="rotate(-8.3368 381.478 328.091)" stroke="#FAFAFA" stroke-width="8"/>
<rect x="501.199" y="310.547" width="100" height="100" rx="11" transform="rotate(-8.3368 501.199 310.547)" stroke="#FAFAFA" stroke-width="8"/>
<rect x="620.921" y="293.003" width="100" height="100" rx="11" transform="rotate(-8.3368 620.921 293.003)" stroke="#FAFAFA" stroke-width="8"/>
<rect x="801.987" y="266.47" width="100" height="100" rx="11" transform="rotate(-8.3368 801.987 266.47)" stroke="#FAFAFA" stroke-width="8"/>
<rect x="921.709" y="248.926" width="100" height="100" rx="11" transform="rotate(-8.3368 921.709 248.926)" stroke="#FAFAFA" stroke-width="8"/>
<rect x="1041.43" y="231.382" width="100" height="100" rx="11" transform="rotate(-8.3368 1041.43 231.382)" stroke="#FAFAFA" stroke-width="8"/>
<rect x="1161.15" y="213.837" width="100" height="100" rx="11" transform="rotate(-8.3368 1161.15 213.837)" stroke="#FAFAFA" stroke-width="8"/>
<rect x="1711.64" y="273.653" width="100" height="100" rx="11" transform="rotate(-8.3368 1711.64 273.653)" stroke="#FAFAFA" stroke-width="8"/>
<rect x="1831.36" y="256.109" width="100" height="100" rx="11" transform="rotate(-8.3368 1831.36 256.109)" stroke="#FAFAFA" stroke-width="8"/>
<rect x="1729.19" y="393.375" width="100" height="100" rx="11" transform="rotate(-8.3368 1729.19 393.375)" stroke="#FAFAFA" stroke-width="8"/>
<rect x="1848.91" y="375.831" width="100" height="100" rx="11" transform="rotate(-8.3368 1848.91 375.831)" stroke="#FAFAFA" stroke-width="8"/>
<rect x="1746.73" y="513.096" width="100" height="100" rx="11" transform="rotate(-8.3368 1746.73 513.096)" stroke="#FAFAFA" stroke-width="8"/>
<rect x="1866.45" y="495.552" width="100" height="100" rx="11" transform="rotate(-8.3368 1866.45 495.552)" stroke="#FAFAFA" stroke-width="8"/>
<rect x="1764.27" y="632.817" width="100" height="100" rx="11" transform="rotate(-8.3368 1764.27 632.817)" stroke="#FAFAFA" stroke-width="8"/>
<rect x="1883.99" y="615.273" width="100" height="100" rx="11" transform="rotate(-8.3368 1883.99 615.273)" stroke="#FAFAFA" stroke-width="8"/>
<rect x="1781.82" y="752.539" width="221" height="100" rx="11" transform="rotate(-8.3368 1781.82 752.539)" stroke="#FAFAFA" stroke-width="8"/>
<rect x="1316.49" y="191.074" width="100" height="100" rx="11" transform="rotate(-8.3368 1316.49 191.074)" stroke="#FAFAFA" stroke-width="8"/>
<rect x="1436.21" y="173.53" width="100" height="100" rx="11" transform="rotate(-8.3368 1436.21 173.53)" stroke="#FAFAFA" stroke-width="8"/>
<rect x="1555.93" y="155.986" width="100" height="100" rx="11" transform="rotate(-8.3368 1555.93 155.986)" stroke="#FAFAFA" stroke-width="8"/>
<rect x="1336.65" y="328.605" width="100" height="100" rx="11" transform="rotate(-8.3368 1336.65 328.605)" stroke="#FAFAFA" stroke-width="8"/>
<rect x="1456.37" y="311.061" width="100" height="100" rx="11" transform="rotate(-8.3368 1456.37 311.061)" stroke="#FAFAFA" stroke-width="8"/>
<rect x="1576.09" y="293.517" width="100" height="100" rx="11" transform="rotate(-8.3368 1576.09 293.517)" stroke="#FAFAFA" stroke-width="8"/>
<rect x="1353.75" y="445.358" width="100" height="100" rx="11" transform="rotate(-8.3368 1353.75 445.358)" stroke="#FAFAFA" stroke-width="8"/>
<rect x="1473.48" y="427.814" width="100" height="100" rx="11" transform="rotate(-8.3368 1473.48 427.814)" stroke="#FAFAFA" stroke-width="8"/>
<rect x="1593.2" y="410.27" width="100" height="100" rx="11" transform="rotate(-8.3368 1593.2 410.27)" stroke="#FAFAFA" stroke-width="8"/>
<rect x="1406.82" y="807.491" width="100" height="100" rx="11" transform="rotate(-8.3368 1406.82 807.491)" stroke="#FAFAFA" stroke-width="8"/>
<rect x="1526.54" y="789.947" width="100" height="100" rx="11" transform="rotate(-8.3368 1526.54 789.947)" stroke="#FAFAFA" stroke-width="8"/>
<rect x="1646.26" y="772.403" width="100" height="100" rx="11" transform="rotate(-8.3368 1646.26 772.403)" stroke="#FAFAFA" stroke-width="8"/>
<rect x="1509.29" y="672.204" width="100" height="100" rx="11" transform="rotate(-8.3368 1509.29 672.204)" stroke="#FAFAFA" stroke-width="8"/>
</g>
<rect x="-547.343" y="417.709" width="2740" height="801" rx="31" transform="rotate(-8.3368 -547.343 417.709)" stroke="#FAFAFA" stroke-width="8"/>
</g>
<g filter="url(#filter0_f_275_2)">
<rect width="2731" height="1792" transform="matrix(0 1 1 0 -480 -798)" fill="#050505"/>
</g>
</g>
<defs>
<filter id="filter0_f_275_2" x="-1480" y="-1798" width="3792" height="4731" filterUnits="userSpaceOnUse" color-interpolation-filters="sRGB">
<feFlood flood-opacity="0" result="BackgroundImageFix"/>
<feBlend mode="normal" in="SourceGraphic" in2="BackgroundImageFix" result="shape"/>
<feGaussianBlur stdDeviation="500" result="effect1_foregroundBlur_275_2"/>
</filter>
<clipPath id="clip0_275_2">
<rect width="1920" height="1080" fill="white"/>
</clipPath>
<clipPath id="clip1_275_2">
<rect x="-551.881" y="414.332" width="2748" height="809" rx="35" transform="rotate(-8.3368 -551.881 414.332)" fill="white"/>
</clipPath>
</defs>
</svg>
